<?xml version="1.0" encoding="utf-8"?><svg xml:space="preserve" viewBox="0 0 100 100" y="0" x="0" xmlns="http://www.w3.org/2000/svg" id="圖層_1" version="1.1" width="200px" height="200px" xmlns:xlink="http://www.w3.org/1999/xlink" style="width:100%;height:100%;background-size:initial;background-repeat-y:initial;background-repeat-x:initial;background-position-y:initial;background-position-x:initial;background-origin:initial;background-image:initial;background-color:rgb(255, 255, 255);background-clip:initial;background-attachment:initial;animation-play-state:paused" ><g class="ldl-scale" style="transform-origin:50% 50%;transform:rotate(0deg) scale(0.8, 0.8);animation-play-state:paused" ><path fill="#c33737" d="M51.883 10.846l5.512 6.203a2.517 2.517 0 0 0 2.677.717l7.875-2.616a2.518 2.518 0 0 1 3.261 1.883l1.672 8.128a2.52 2.52 0 0 0 1.96 1.96l8.128 1.672a2.519 2.519 0 0 1 1.883 3.261l-2.616 7.875a2.521 2.521 0 0 0 .717 2.677l6.203 5.512a2.519 2.519 0 0 1 0 3.766l-6.203 5.512a2.517 2.517 0 0 0-.717 2.677l2.616 7.875a2.518 2.518 0 0 1-1.883 3.261l-8.128 1.672a2.52 2.52 0 0 0-1.96 1.96l-1.672 8.128a2.519 2.519 0 0 1-3.261 1.883l-7.875-2.616a2.521 2.521 0 0 0-2.677.717l-5.512 6.203a2.519 2.519 0 0 1-3.766 0l-5.512-6.203a2.517 2.517 0 0 0-2.677-.717l-7.875 2.616a2.518 2.518 0 0 1-3.261-1.883l-1.672-8.128a2.52 2.52 0 0 0-1.96-1.96l-8.128-1.672a2.519 2.519 0 0 1-1.883-3.261l2.616-7.875a2.521 2.521 0 0 0-.717-2.677l-6.203-5.512a2.519 2.519 0 0 1 0-3.766l6.203-5.512a2.517 2.517 0 0 0 .717-2.677l-2.616-7.875a2.518 2.518 0 0 1 1.883-3.261l8.128-1.672a2.52 2.52 0 0 0 1.96-1.96l1.672-8.128a2.519 2.519 0 0 1 3.261-1.883l7.875 2.616a2.521 2.521 0 0 0 2.677-.717l5.512-6.203a2.519 2.519 0 0 1 3.766 0z" style="fill:rgb(195, 55, 55);animation-play-state:paused" ></path>
<g style="animation-play-state:paused" ><path fill="#f5e6c8" d="M48.331 41.585c0-5.279-3.427-8.826-8.529-8.826-4.991 0-8.478 3.629-8.478 8.826 0 5.196 3.487 8.825 8.478 8.825 5.102 0 8.529-3.547 8.529-8.825zm-12.079 0c0-3.21 1.194-4.838 3.55-4.838 2.357 0 3.551 1.628 3.551 4.838 0 3.255-1.161 4.838-3.551 4.838-2.934 0-3.55-2.631-3.55-4.838z" style="fill:rgb(245, 230, 200);animation-play-state:paused" ></path>
<path d="M63.707 33.583L59.77 31 36.598 66.034l-.254.383L40.28 69l23.172-35.033z" fill="#f5e6c8" style="fill:rgb(245, 230, 200);animation-play-state:paused" ></path>
<path fill="#f5e6c8" d="M60.198 50.234c-5.102 0-8.529 3.547-8.529 8.826 0 5.278 3.427 8.824 8.529 8.824 5.071 0 8.478-3.546 8.478-8.824-.001-5.279-3.407-8.826-8.478-8.826zm3.55 8.826c0 3.255-1.161 4.837-3.55 4.837-2.935 0-3.551-2.63-3.551-4.837 0-3.177 1.194-4.789 3.551-4.789 2.355 0 3.55 1.612 3.55 4.789z" style="fill:rgb(245, 230, 200);animation-play-state:paused" ></path></g>
<metadata xmlns:d="https://loading.io/stock/" style="animation-play-state:paused" ><d:name style="animation-play-state:paused" >on sale</d:name>
<d:tags style="animation-play-state:paused" >promote,market,discount,offer,on sale,business</d:tags>
<d:license style="animation-play-state:paused" >pro</d:license>
<d:slug style="animation-play-state:paused" >gswkyg</d:slug></metadata></g><!-- generated by https://loading.io/ --></svg>